<svg class="t-header-logo-full" viewBox="0 0 554.995 59.145">
                        <path d="M0.383,56.242l0.577,0.74c3.506-2.719,9.57-7.849,13.463-11.741c2.679-2.659,2.87-5.564,2.87-8.529V15.019l1.085-1.175 	L17.614,13.1L6.382,23.361v22.992C6.382,50.556,3.769,53.275,0.383,56.242 M37.839,50.248c-2.617,0-8.55-1.362-13.781-2.043v-4.387 	l14.037-14.956V50L37.839,50.248z M38.095,27.07L24.059,42.086v-9.332l14.037-14.216V27.07z M38.095,16.811L24.059,31.085V10.817 	c2.936-0.188,5.743-0.373,6.697-0.373c2.365,0.061,7.34,0.928,7.34,6.055V16.811z M32.097,59.145 	c3.508-3.459,12.761-11.062,17.739-14.215V16.07c0-8.284-4.149-14.526-16.273-14.526c-7.209,0-9.826,0.928-19.33,0.928 	c-6.255,0-12.38-0.185-13.784-0.556L0,2.1c0.894,5.13,3.194,8.961,14.613,8.961c1.532,0,5.999-0.06,8.232-0.184v37.268 	c-2.617-0.309-4.723-0.681-6.317-0.681c-2.872-0.247-8.041,4.943-14.869,10.506l0.574,0.742c3.128-2.103,5.106-2.843,7.149-2.843 	C13.145,55.87,27.502,58.097,32.097,59.145 M72.55,4.448l-0.128-0.245c-0.636,0.06-1.213,0.06-1.721,0.06 	c-3.129,0-5.041-0.927-7.212-3.399l-7.337,7.662c1.594,1.423,3.893,1.979,5.681,1.979C66.172,10.505,70.573,7.602,72.55,4.448 M65.276,54.635l8.999-8.53l-0.767-0.743l-1.915,1.795l-1.788-1.484V17.551l-6.379-5.191l-8.612,8.157l0.764,0.74l1.532-1.419 	l1.784,1.483V46.29l-1.466,1.671v0.308L65.276,54.635z M90.034,11.372c8.36-1.051,13.783-6.121,15.63-7.849l-7.081-3.091 	c-2.423,3.027-5.742,7.17-9.697,10.073L90.034,11.372z M94.244,48.021l-0.701,0.743c-2.68-0.867-7.53-6.431-7.53-11.681 	c0-2.291,0.446-4.082,1.404-5.438l3.191,3.768l0.957-0.556L79.759,21.013c5.614,3.027,9.701,0.496,12.253-1.547l2.105,1.855 	L94.244,48.021z M100.5,54.635l9.058-8.53l-0.764-0.743l-1.915,1.795l-1.788-1.484c0-1.791,0.066-20.396,0.066-26.575l0.508-1.115 	l-6.953-5.623c-2.489,2.347-3.063,3.338-5.614,5.314c-1.213,0.064-4.277-1.791-6.828-5.314h-0.574l-7.274,8.777l8.356,9.701 	c-7.527,1.796-10.655,6.306-10.655,10.877c0,5.749,5.808,12.303,10.465,13.351h0.128c2.679-2.223,5.68-4.634,7.212-5.873 	L100.5,54.635z M140.953,19.654l-0.066-0.496c-2.296-1.544-5.998-4.882-7.337-6.426l-7.401,6.798v-1.979l-6.445-5.191l-8.553,8.157 	l0.768,0.74l1.531-1.419l1.788,1.483V46.29l-1.47,1.671v0.308l7.914,6.367l8.93-8.53l-0.764-0.743l-1.85,1.795l-1.849-1.484V20.826 	l0.446-0.248c1.849,1.734,3.955,3.894,7.274,6.057C135.909,25.339,140.12,20.765,140.953,19.654 M159.647,4.448l-0.129-0.245 	c-0.636,0.06-1.213,0.06-1.721,0.06c-3.126,0-5.041-0.927-7.212-3.399l-7.34,7.662c1.598,1.423,3.896,1.979,5.68,1.979 	C153.268,10.505,157.669,7.602,159.647,4.448 M152.373,54.635l8.996-8.53l-0.764-0.743l-1.916,1.795l-1.787-1.484V17.551 	l-6.378-5.191l-8.616,8.157l0.764,0.74l1.535-1.419l1.784,1.483V46.29l-1.466,1.671v0.308L152.373,54.635z M184.657,47.157 	l-0.063,0.124c-2.935-0.556-6.316-2.227-8.422-4.823v-24.72l0.128-0.064c2.614,1.052,5.871,2.596,8.357,5.81V47.157z M195.633,27.935c0-1.916,0-6.426,0.191-8.53c-1.978-3.335-6.445-7.292-11.869-7.725c-1.532,1.42-7.019,6.427-18.76,7.354v20.582 	c0,1.051-0.252,5.994-0.38,6.985v0.124c1.656,2.595,7.336,6.921,12.633,8.217c2.997-3.398,7.529-7.354,18.185-8.897V27.935z M239.853,47.157l-0.066,0.124c-2.932-0.556-6.316-2.227-8.422-4.823V15.327l0.128-0.064l8.36,6.923V47.157z M250.825,24.101 	l0.128-5.499C247.189,14.895,234.428,4.448,227.918,0l-7.72,6.738l11.101,8.281c-1.466,0.679-5.805,3.151-10.909,5.375v18.913 	c0,1.052-0.255,6.674-0.383,7.294v0.124c3.319,4.694,8.678,6.857,12.633,8.217c3.509-3.954,8.294-7.293,18.185-8.897V24.101z M269.073,33.374V18.107l0.19-0.061c1.788,1.547,7.468,6.737,8.553,8.838L269.073,33.374z M269.073,34.92l17.549-13.229 	c-2.106-3.214-6.252-7.912-9.763-10.012c-4.595,4.451-12.443,6.983-18.759,7.354v23.424c-0.066,1.112-0.257,3.215-0.384,4.144 	c6.064,2.284,10.144,6.366,12.633,8.341c4.276-3.707,10.849-8.405,13.338-10.012l-0.576-0.805l-4.211,2.906 	c-1.658-0.123-7.912-5.501-9.827-6.985V34.92z M343.729,40.542l-4.594-6.798l4.594-4.883V40.542z M343.729,27.07l-5.233,5.564 	l-3.638-5.131l8.871-8.964V27.07z M356.234,3.028l-0.572-0.124c-0.958,1.731-3.895,4.078-8.424,4.078 	c-5.488,0-8.487-3.646-10.975-5.81c-2.297,2.351-4.724,4.698-7.721,7.541c3.382,3.091,8.805,5.747,15.187,6.118v1.98l-9.509,9.64 	l-3.444-5.13L317.567,2.348c-4.466,1.051-9.57,1.483-14.867,1.855v0.803c1.342,0.245,3.637,0.617,9.953,9.765v27.811 	c-8.931,0.064-12.632,5.995-12.632,10.386c0,2.038,0.956,4.758,3.447,6.054l0.51-0.557c-2.171-1.42-2.234-4.139-2.234-5.126 	c0-2.167,1.914-4.391,4.722-4.391c6.891,0,10.719,6.798,11.933,9.457c3.061-2.474,6.124-4.882,9.38-7.046 	c-3-5.069-8.168-8.345-13.911-8.713V16.315l28.14,40.729c3.891-3.153,7.783-6.365,11.678-9.333l-0.703-0.865l-3.191,2.226 	l-5.041-6.985V14.831C352.726,13.72,356.234,6.922,356.234,3.028 M376.205,47.157l-0.063,0.124 	c-2.937-0.556-6.317-2.227-8.422-4.823v-24.72l0.127-0.064c2.617,1.052,5.871,2.596,8.357,5.81V47.157z M387.181,27.935 	c0-1.916,0-6.426,0.191-8.53c-1.977-3.335-6.443-7.292-11.869-7.725c-1.53,1.42-7.018,6.427-18.759,7.354v20.582 	c0,1.051-0.254,5.994-0.382,6.985v0.124c1.66,2.595,7.338,6.921,12.633,8.217c2.999-3.398,7.528-7.354,18.186-8.897V27.935z M408.045,47.157l-1.786-1.484l0.063-27.626h6.19v-1.175h-6.19V1.048h-0.51c-3.318,3.091-7.784,6.182-11.934,9.149l0.447,0.743 	l0.895-0.311l0.189,6.242h-3.764v1.175h3.701V46.29l-1.469,1.794v0.309l7.912,6.243l10.722-10.197l-0.767-0.804L408.045,47.157z M416.531,11.372c8.358-1.051,13.782-6.121,15.634-7.849l-7.084-3.091c-2.426,3.027-5.743,7.17-9.697,10.073L416.531,11.372z M424.06,54.635l8.998-8.53l-0.767-0.743l-1.915,1.795l-1.784-1.484V17.551l-6.381-5.191l-8.614,8.157l0.765,0.74l1.532-1.419 	l1.788,1.483V46.29l-1.471,1.671v0.308L424.06,54.635z M462.345,19.53l-0.129-0.372c-1.978-1.299-6.508-4.819-8.294-7.293h-0.445 	c-3.639,4.634-9.636,6.861-16.975,7.293v23.3c-0.063,1.112-0.254,3.215-0.384,4.144c5.808,2.719,10.211,6.058,12.635,8.341 	c4.147-3.707,10.209-7.849,13.337-10.012l-0.575-0.805l-4.211,2.906c-2.232-0.558-7.977-5.501-9.89-6.985V19.282l0.191-0.124 	c1.786,2.907,5.231,5.378,7.466,6.674C457.112,24.536,460.687,21.816,462.345,19.53 M482.381,4.448l-0.13-0.245 	c-0.637,0.06-1.211,0.06-1.722,0.06c-3.127,0-5.043-0.927-7.21-3.399l-7.338,7.662c1.594,1.423,3.891,1.979,5.678,1.979 	C475.998,10.505,480.401,7.602,482.381,4.448 M475.104,54.635l8.999-8.53l-0.768-0.743l-1.914,1.795l-1.786-1.484V17.551 	l-6.38-5.191l-8.614,8.157l0.766,0.74l1.531-1.419l1.786,1.483V46.29l-1.467,1.671v0.308L475.104,54.635z M504.075,48.021 	l-0.704,0.743c-2.68-0.867-7.527-6.431-7.527-11.681c0-2.291,0.443-4.082,1.402-5.438l3.19,3.768l0.957-0.556L489.59,21.013 	c5.614,3.027,9.698,0.496,12.251-1.547l2.104,1.855L504.075,48.021z M510.327,54.635l9.06-8.53l-0.765-0.743l-1.915,1.795 	l-1.787-1.484c0-1.791,0.064-20.396,0.064-26.575l0.51-1.115l-6.954-5.623c-2.486,2.347-3.062,3.338-5.614,5.314 	c-1.214,0.064-4.275-1.791-6.828-5.314h-0.574l-7.274,8.777l8.358,9.701c-7.528,1.796-10.655,6.306-10.655,10.877 	c0,5.749,5.807,12.303,10.465,13.351h0.127c2.681-2.223,5.679-4.634,7.212-5.873L510.327,54.635z M548.866,22.001l-10.784,10.693 	l-3.572-2.66V17.922l0.128-0.063c1.978,3.894,6.825,5.317,10.399,5.317C546.187,23.176,547.974,22.496,548.866,22.001 M538.593,33.374l2.87,2.163V48.64l-0.128,0.061c-2.423-3.091-7.018-6.427-13.525-5.066L538.593,33.374z M554.992,13.1h-0.83 	c-0.128,2.103-1.468,3.711-3.572,3.711c-5.424,0-9.381-4.079-10.594-5.378h-0.126c-1.788,3.151-4.339,6.797-15.762,6.797v11.188 	c0,5.439,4.021,8.282,7.402,9.333L520.6,49.256l0.702,0.619l3.316-3.091c4.85,1.42,8.999,5.811,10.529,9.27h0.318 	c4.276-5.746,8.997-8.59,16.653-9.329V35.537c0-3.462-2.168-6.427-7.272-8.282l6.188-5.934 	C553.971,18.602,555.057,15.636,554.992,13.1"></path>
                    </svg>